<svg width="512" height="176" fill="none" xmlns="http://www.w3.org/2000/svg">
  <path d="M149.074 58.275v5.764h-21.688v61.937h-6.643V64.039H99.055v-5.764h50.019Zm48.944 42.496c0 3.973-.586 7.588-1.758 10.844-1.108 3.257-2.703 6.024-4.787 8.304a21.875 21.875 0 0 1-7.23 5.373c-2.8 1.237-5.894 1.856-9.28 1.856-3.387 0-6.481-.619-9.281-1.856a22.95 22.95 0 0 1-7.327-5.373c-2.019-2.28-3.615-5.047-4.787-8.304-1.107-3.256-1.661-6.871-1.661-10.844 0-3.973.554-7.587 1.661-10.844 1.172-3.256 2.768-6.024 4.787-8.303 2.084-2.345 4.526-4.136 7.327-5.374 2.8-1.302 5.894-1.953 9.281-1.953 3.386 0 6.48.65 9.28 1.953a20.214 20.214 0 0 1 7.23 5.374c2.084 2.279 3.679 5.047 4.787 8.303 1.172 3.257 1.758 6.871 1.758 10.844Zm-6.741 0c0-6.317-1.465-11.332-4.396-15.044-2.931-3.778-6.904-5.667-11.918-5.667-5.015 0-8.988 1.89-11.919 5.667-2.931 3.712-4.396 8.727-4.396 15.044 0 6.318 1.465 11.333 4.396 15.045 2.931 3.712 6.904 5.568 11.919 5.568 5.014 0 8.987-1.856 11.918-5.568 2.931-3.712 4.396-8.727 4.396-15.045Zm20.513-23.544c1.889-.52 4.429-1.107 7.62-1.758 3.192-.651 7.099-.977 11.723-.977 3.843 0 7.034.553 9.574 1.66 2.605 1.108 4.657 2.704 6.155 4.788 1.563 2.019 2.67 4.461 3.321 7.327.652 2.865.977 6.024.977 9.476v28.233h-6.35V99.794c0-3.582-.26-6.61-.781-9.085-.456-2.475-1.27-4.494-2.443-6.057-1.107-1.563-2.605-2.67-4.493-3.322-1.824-.716-4.136-1.074-6.937-1.074-2.995 0-5.601.163-7.815.488-2.149.326-3.549.619-4.201.88v44.352h-6.35V77.227Zm69.069 21.297c2.019 1.368 4.168 3.126 6.448 5.276a87.754 87.754 0 0 1 6.838 7.034 88.547 88.547 0 0 1 6.35 7.717c2.019 2.605 3.712 5.08 5.08 7.425h-7.522a64.816 64.816 0 0 0-5.373-7.62 73.127 73.127 0 0 0-6.253-7.132 80.27 80.27 0 0 0-6.545-6.057c-2.149-1.823-4.201-3.354-6.155-4.591v25.4h-6.35V51.339l6.35-1.172V98.23a375.685 375.685 0 0 0 5.471-5.373 544.32 544.32 0 0 0 6.057-6.154 245.847 245.847 0 0 0 5.862-6.057 203.56 203.56 0 0 0 4.689-5.178h7.62a1674.922 1674.922 0 0 1-5.08 5.275 5761.214 5761.214 0 0 1-5.959 6.155 543.499 543.499 0 0 1-6.057 6.154l-5.471 5.471Zm41.226 27.452h-6.35V75.469h6.35v50.507Zm1.466-65.747c0 1.498-.456 2.703-1.368 3.614-.912.847-2.019 1.27-3.322 1.27-1.302 0-2.409-.423-3.321-1.27-.912-.911-1.368-2.116-1.368-3.614 0-1.498.456-2.67 1.368-3.517.912-.912 2.019-1.368 3.321-1.368 1.303 0 2.41.456 3.322 1.368.912.847 1.368 2.019 1.368 3.517Zm21.297 15.24h20.124v5.373h-20.124v26.865c0 2.866.227 5.211.683 7.034.521 1.759 1.238 3.126 2.15 4.103a6.653 6.653 0 0 0 3.321 1.954c1.303.326 2.736.489 4.299.489 2.67 0 4.819-.293 6.447-.88 1.628-.651 2.898-1.237 3.81-1.758l1.563 5.275c-.911.586-2.507 1.27-4.787 2.052-2.279.716-4.754 1.074-7.424 1.074-3.126 0-5.764-.39-7.913-1.172-2.084-.846-3.778-2.084-5.08-3.712-1.238-1.693-2.117-3.778-2.638-6.252-.521-2.475-.782-5.406-.782-8.793V60.62l6.351-1.173V75.47Zm28.819 25.205c0-4.43.619-8.272 1.856-11.528 1.303-3.322 2.963-6.09 4.982-8.304 2.084-2.214 4.429-3.843 7.034-4.885 2.67-1.107 5.406-1.66 8.206-1.66 6.188 0 11.105 2.019 14.752 6.056 3.712 4.038 5.568 10.258 5.568 18.66 0 .52-.032 1.042-.097 1.563 0 .521-.033 1.009-.098 1.465h-35.462c.195 6.187 1.725 10.942 4.591 14.263 2.866 3.322 7.425 4.983 13.677 4.983 3.452 0 6.187-.326 8.206-.977 2.019-.652 3.485-1.205 4.396-1.661l1.173 5.471c-.912.521-2.638 1.139-5.178 1.856-2.475.716-5.406 1.074-8.792 1.074-4.429 0-8.207-.651-11.333-1.953-3.126-1.303-5.698-3.126-7.717-5.471-2.019-2.345-3.485-5.113-4.397-8.304-.911-3.256-1.367-6.806-1.367-10.648Zm35.853-4.006c-.13-5.275-1.368-9.378-3.712-12.31-2.345-2.93-5.667-4.395-9.965-4.395-2.28 0-4.331.456-6.155 1.367-1.758.912-3.321 2.15-4.689 3.713-1.302 1.498-2.345 3.256-3.126 5.275a22.919 22.919 0 0 0-1.27 6.35h28.917Z" fill="#1B1B1B"/>
</svg>
