<svg width="512" height="132" fill="none" xmlns="http://www.w3.org/2000/svg">
  <path d="M147.019 63.108v5.764h-21.688v61.937h-6.643V68.872H97v-5.764h50.019Zm48.944 42.497c0 3.973-.587 7.587-1.759 10.844-1.107 3.256-2.703 6.024-4.787 8.303a21.87 21.87 0 0 1-7.229 5.374c-2.801 1.237-5.894 1.856-9.281 1.856-3.387 0-6.48-.619-9.281-1.856a22.948 22.948 0 0 1-7.327-5.374c-2.019-2.279-3.614-5.047-4.787-8.303-1.107-3.257-1.66-6.871-1.66-10.844 0-3.973.553-7.588 1.66-10.844 1.173-3.257 2.768-6.024 4.787-8.304 2.084-2.345 4.527-4.136 7.327-5.373 2.801-1.303 5.894-1.954 9.281-1.954 3.387 0 6.48.651 9.281 1.954a20.219 20.219 0 0 1 7.229 5.373c2.084 2.28 3.68 5.047 4.787 8.304 1.172 3.256 1.759 6.871 1.759 10.844Zm-6.741 0c0-6.318-1.466-11.333-4.396-15.045-2.931-3.777-6.904-5.666-11.919-5.666-5.015 0-8.988 1.889-11.918 5.666-2.931 3.712-4.397 8.727-4.397 15.045 0 6.317 1.466 11.332 4.397 15.044 2.93 3.713 6.903 5.569 11.918 5.569s8.988-1.856 11.919-5.569c2.93-3.712 4.396-8.727 4.396-15.044Zm20.513-23.544c1.888-.521 4.428-1.107 7.62-1.759 3.191-.651 7.099-.977 11.723-.977 3.842 0 7.034.554 9.574 1.661 2.605 1.107 4.656 2.703 6.154 4.787 1.563 2.02 2.671 4.462 3.322 7.327.651 2.866.977 6.024.977 9.476v28.233h-6.35v-26.181c0-3.582-.261-6.61-.782-9.086-.456-2.475-1.27-4.493-2.442-6.056-1.107-1.564-2.605-2.67-4.494-3.322-1.824-.716-4.136-1.075-6.936-1.075-2.996 0-5.601.163-7.815.489-2.15.325-3.55.618-4.201.879v44.352h-6.35V82.061Zm69.068 21.297c2.019 1.367 4.169 3.126 6.448 5.275a87.763 87.763 0 0 1 6.839 7.034 88.892 88.892 0 0 1 6.35 7.718c2.019 2.605 3.712 5.08 5.08 7.424h-7.523a64.816 64.816 0 0 0-5.373-7.62 73.121 73.121 0 0 0-6.252-7.131 79.76 79.76 0 0 0-6.546-6.057c-2.149-1.824-4.2-3.354-6.154-4.592v25.4h-6.35V56.172l6.35-1.172v48.065a380.43 380.43 0 0 0 5.471-5.373 544.277 544.277 0 0 0 6.056-6.155 244.025 244.025 0 0 0 5.862-6.057 199.829 199.829 0 0 0 4.689-5.178h7.62a1674.922 1674.922 0 0 1-5.08 5.276 4927.069 4927.069 0 0 1-5.959 6.154 544.333 544.333 0 0 1-6.057 6.155l-5.471 5.471Zm41.227 27.451h-6.35V80.302h6.35v50.507Zm1.465-65.747c0 1.498-.456 2.703-1.368 3.615-.912.847-2.019 1.27-3.321 1.27-1.303 0-2.41-.423-3.322-1.27-.912-.912-1.368-2.117-1.368-3.615 0-1.498.456-2.67 1.368-3.517.912-.911 2.019-1.367 3.322-1.367 1.302 0 2.409.456 3.321 1.367.912.847 1.368 2.02 1.368 3.517Zm21.297 15.24h20.125v5.373h-20.125v26.866c0 2.866.228 5.21.684 7.034.521 1.758 1.237 3.126 2.149 4.103a6.663 6.663 0 0 0 3.322 1.954c1.302.325 2.735.488 4.298.488 2.67 0 4.82-.293 6.448-.879 1.628-.651 2.898-1.238 3.81-1.759l1.563 5.276c-.912.586-2.508 1.27-4.787 2.051-2.28.717-4.754 1.075-7.425 1.075-3.126 0-5.764-.391-7.913-1.172-2.084-.847-3.777-2.084-5.08-3.713-1.237-1.693-2.117-3.777-2.638-6.252-.521-2.475-.781-5.406-.781-8.792V65.453l6.35-1.172v16.021Zm28.819 25.205c0-4.429.619-8.271 1.856-11.528 1.303-3.321 2.964-6.09 4.983-8.303 2.084-2.215 4.428-3.843 7.034-4.885 2.67-1.107 5.405-1.66 8.206-1.66 6.187 0 11.104 2.018 14.751 6.056 3.713 4.038 5.569 10.258 5.569 18.659 0 .521-.033 1.042-.098 1.563 0 .521-.032 1.01-.098 1.466h-35.462c.195 6.187 1.726 10.941 4.592 14.263 2.865 3.321 7.424 4.982 13.677 4.982 3.451 0 6.187-.325 8.206-.977 2.019-.651 3.484-1.205 4.396-1.661l1.172 5.471c-.912.521-2.637 1.14-5.178 1.856-2.474.717-5.405 1.075-8.792 1.075-4.429 0-8.206-.651-11.332-1.954-3.126-1.302-5.699-3.126-7.718-5.471-2.019-2.344-3.484-5.112-4.396-8.304-.912-3.256-1.368-6.805-1.368-10.648Zm35.853-4.005c-.13-5.276-1.367-9.379-3.712-12.31-2.345-2.93-5.666-4.396-9.965-4.396-2.279 0-4.331.456-6.154 1.368-1.759.912-3.322 2.15-4.689 3.712-1.303 1.498-2.345 3.257-3.127 5.276a22.955 22.955 0 0 0-1.27 6.35h28.917Z" fill="#1B1B1B"/>
</svg>
