<svg width="2527" height="650" viewBox="0 0 2527 650" fill="none" xmlns="http://www.w3.org/2000/svg">
<path d="M1966.01 417.367H2058.68V94.2084H2186.81V6.18799H1837.89V94.2084H1966.01V417.367Z" fill="#0D1017"/>
<path d="M128.126 417.367H220.794V94.2084H348.92V6.18799H0V94.2084H128.126V417.367Z" fill="#0098EA"/>
<path d="M571.627 425.078C688.612 425.078 784.187 329.525 784.187 212.539C784.187 95.5535 688.612 0 571.627 0C454.641 0 359.066 95.5535 359.066 212.539C359.066 329.525 454.047 425.078 571.627 425.078ZM571.627 335.87C504.444 335.87 451.734 279.106 451.734 212.518C451.734 145.93 504.444 89.1663 571.627 89.1663C638.809 89.1663 690.925 145.93 690.925 212.518C690.925 279.106 638.215 335.87 571.627 335.87Z" fill="#0098EA"/>
<path d="M1207.05 417.388V6.18799H1114.39V259.851L914.58 6.18799H835.238V417.388H927.312V163.152L1127.71 417.388H1207.05Z" fill="#0098EA"/>
<path d="M1289.45 417.516V6.18799H1377.59V187.55L1533.12 6.18799H1638.77L1484.06 190.362L1640.6 417.516H1535.15L1420.95 248.405L1377.59 300.625V417.516H1289.45Z" fill="#0D1017"/>
<path d="M1778.88 6.18799V417.234H1686.88V6.18799H1778.88Z" fill="#0D1017"/>
<path d="M2240.83 417.516V6.18799L2525.85 6.18799V77.8892H2333V175.901H2511.39V247.602H2333V345.815H2526.66V417.516H2240.83Z" fill="#0D1017"/>
<path d="M360.798 554.216V543.52H424.53V554.216H398.836V625.87H386.452V554.216H360.798Z" fill="#0D1017"/>
<path d="M466.031 627.116C460.241 627.116 455.188 625.789 450.872 623.136C446.556 620.482 443.205 616.769 440.819 611.998C438.434 607.226 437.241 601.65 437.241 595.27C437.241 588.864 438.434 583.261 440.819 578.463C443.205 573.664 446.556 569.938 450.872 567.284C455.188 564.63 460.241 563.304 466.031 563.304C471.821 563.304 476.874 564.63 481.19 567.284C485.506 569.938 488.857 573.664 491.242 578.463C493.628 583.261 494.821 588.864 494.821 595.27C494.821 601.65 493.628 607.226 491.242 611.998C488.857 616.769 485.506 620.482 481.19 623.136C476.874 625.789 471.821 627.116 466.031 627.116ZM466.071 617.024C469.824 617.024 472.933 616.032 475.4 614.048C477.866 612.065 479.689 609.424 480.868 606.127C482.075 602.83 482.678 599.197 482.678 595.23C482.678 591.289 482.075 587.671 480.868 584.373C479.689 581.049 477.866 578.382 475.4 576.372C472.933 574.361 469.824 573.356 466.071 573.356C462.291 573.356 459.155 574.361 456.662 576.372C454.196 578.382 452.359 581.049 451.153 584.373C449.974 587.671 449.384 591.289 449.384 595.23C449.384 599.197 449.974 602.83 451.153 606.127C452.359 609.424 454.196 612.065 456.662 614.048C459.155 616.032 462.291 617.024 466.071 617.024Z" fill="#0D1017"/>
<path d="M545.58 627.116C539.79 627.116 534.737 625.789 530.421 623.136C526.105 620.482 522.754 616.769 520.368 611.998C517.982 607.226 516.79 601.65 516.79 595.27C516.79 588.864 517.982 583.261 520.368 578.463C522.754 573.664 526.105 569.938 530.421 567.284C534.737 564.63 539.79 563.304 545.58 563.304C551.37 563.304 556.423 564.63 560.739 567.284C565.055 569.938 568.406 573.664 570.791 578.463C573.177 583.261 574.37 588.864 574.37 595.27C574.37 601.65 573.177 607.226 570.791 611.998C568.406 616.769 565.055 620.482 560.739 623.136C556.423 625.789 551.37 627.116 545.58 627.116ZM545.62 617.024C549.373 617.024 552.482 616.032 554.949 614.048C557.415 612.065 559.238 609.424 560.417 606.127C561.623 602.83 562.227 599.197 562.227 595.23C562.227 591.289 561.623 587.671 560.417 584.373C559.238 581.049 557.415 578.382 554.949 576.372C552.482 574.361 549.373 573.356 545.62 573.356C541.84 573.356 538.704 574.361 536.211 576.372C533.745 578.382 531.908 581.049 530.702 584.373C529.523 587.671 528.933 591.289 528.933 595.23C528.933 599.197 529.523 602.83 530.702 606.127C531.908 609.424 533.745 612.065 536.211 614.048C538.704 616.032 541.84 617.024 545.62 617.024Z" fill="#0D1017"/>
<path d="M611.136 543.52V625.87H599.113V543.52H611.136Z" fill="#0D1017"/>
<path d="M649.691 604.921L649.61 590.244H651.701L676.31 564.108H690.705L662.638 593.863H660.749L649.691 604.921ZM638.633 625.87V543.52H650.656V625.87H638.633ZM677.637 625.87L655.521 596.517L663.805 588.113L692.394 625.87H677.637Z" fill="#0D1017"/>
<path d="M712.985 625.87V564.108H725.008V625.87H712.985ZM719.057 554.578C716.966 554.578 715.17 553.881 713.669 552.487C712.194 551.066 711.457 549.378 711.457 547.421C711.457 545.437 712.194 543.748 713.669 542.354C715.17 540.933 716.966 540.223 719.057 540.223C721.148 540.223 722.93 540.933 724.405 542.354C725.906 543.748 726.656 545.437 726.656 547.421C726.656 549.378 725.906 551.066 724.405 552.487C722.93 553.881 721.148 554.578 719.057 554.578Z" fill="#0D1017"/>
<path d="M781.336 564.108V573.758H747.6V564.108H781.336ZM756.647 549.311H768.67V607.735C768.67 610.067 769.018 611.823 769.715 613.003C770.412 614.155 771.31 614.946 772.409 615.375C773.535 615.777 774.755 615.978 776.068 615.978C777.033 615.978 777.878 615.911 778.601 615.777C779.325 615.643 779.888 615.536 780.29 615.456L782.461 625.387C781.765 625.655 780.773 625.924 779.486 626.192C778.199 626.486 776.591 626.647 774.661 626.674C771.498 626.728 768.549 626.165 765.815 624.985C763.08 623.806 760.869 621.983 759.18 619.517C757.491 617.051 756.647 613.954 756.647 610.228V549.311Z" fill="#0D1017"/>
<path d="M876.641 564.108V573.758H841.739V564.108H876.641ZM851.309 625.87V556.95C851.309 553.09 852.153 549.887 853.842 547.34C855.531 544.767 857.769 542.85 860.557 541.59C863.345 540.304 866.374 539.66 869.644 539.66C872.057 539.66 874.121 539.861 875.837 540.263C877.552 540.639 878.826 540.987 879.657 541.309L876.842 551.04C876.279 550.879 875.555 550.691 874.671 550.477C873.786 550.235 872.714 550.115 871.454 550.115C868.532 550.115 866.441 550.838 865.181 552.286C863.948 553.734 863.331 555.824 863.331 558.559V625.87H851.309Z" fill="#0D1017"/>
<path d="M923.952 627.116C918.161 627.116 913.108 625.789 908.792 623.136C904.477 620.482 901.126 616.769 898.74 611.998C896.354 607.226 895.161 601.65 895.161 595.27C895.161 588.864 896.354 583.261 898.74 578.463C901.126 573.664 904.477 569.938 908.792 567.284C913.108 564.63 918.161 563.304 923.952 563.304C929.742 563.304 934.795 564.63 939.111 567.284C943.427 569.938 946.777 573.664 949.163 578.463C951.549 583.261 952.742 588.864 952.742 595.27C952.742 601.65 951.549 607.226 949.163 611.998C946.777 616.769 943.427 620.482 939.111 623.136C934.795 625.789 929.742 627.116 923.952 627.116ZM923.992 617.024C927.745 617.024 930.854 616.032 933.32 614.048C935.787 612.065 937.61 609.424 938.789 606.127C939.995 602.83 940.598 599.197 940.598 595.23C940.598 591.289 939.995 587.671 938.789 584.373C937.61 581.049 935.787 578.382 933.32 576.372C930.854 574.361 927.745 573.356 923.992 573.356C920.212 573.356 917.076 574.361 914.583 576.372C912.117 578.382 910.28 581.049 909.074 584.373C907.894 587.671 907.305 591.289 907.305 595.23C907.305 599.197 907.894 602.83 909.074 606.127C910.28 609.424 912.117 612.065 914.583 614.048C917.076 616.032 920.212 617.024 923.992 617.024Z" fill="#0D1017"/>
<path d="M977.485 625.87V564.108H989.106V573.919H989.749C990.875 570.595 992.858 567.981 995.7 566.078C998.568 564.148 1001.81 563.183 1005.43 563.183C1006.18 563.183 1007.07 563.21 1008.08 563.263C1009.13 563.317 1009.95 563.384 1010.54 563.464V574.964C1010.05 574.83 1009.2 574.683 1007.96 574.522C1006.73 574.334 1005.5 574.241 1004.26 574.241C1001.42 574.241 998.89 574.844 996.665 576.05C994.467 577.229 992.724 578.878 991.438 580.996C990.151 583.087 989.508 585.472 989.508 588.153V625.87H977.485Z" fill="#0D1017"/>
<path d="M1070.46 554.216V543.52H1134.19V554.216H1108.5V625.87H1096.11V554.216H1070.46Z" fill="#0D1017"/>
<path d="M1216.27 584.695C1216.27 593.488 1214.66 601.047 1211.44 607.373C1208.23 613.673 1203.82 618.525 1198.21 621.929C1192.64 625.307 1186.3 626.996 1179.2 626.996C1172.06 626.996 1165.7 625.307 1160.1 621.929C1154.52 618.525 1150.12 613.66 1146.91 607.333C1143.69 601.007 1142.08 593.461 1142.08 584.695C1142.08 575.903 1143.69 568.357 1146.91 562.057C1150.12 555.731 1154.52 550.879 1160.1 547.501C1165.7 544.097 1172.06 542.394 1179.2 542.394C1186.3 542.394 1192.64 544.097 1198.21 547.501C1203.82 550.879 1208.23 555.731 1211.44 562.057C1214.66 568.357 1216.27 575.903 1216.27 584.695ZM1203.96 584.695C1203.96 577.993 1202.88 572.351 1200.71 567.767C1198.56 563.156 1195.61 559.671 1191.86 557.312C1188.14 554.926 1183.91 553.734 1179.2 553.734C1174.45 553.734 1170.21 554.926 1166.49 557.312C1162.76 559.671 1159.81 563.156 1157.64 567.767C1155.5 572.351 1154.43 577.993 1154.43 584.695C1154.43 591.397 1155.5 597.053 1157.64 601.664C1159.81 606.248 1162.76 609.732 1166.49 612.118C1170.21 614.477 1174.45 615.657 1179.2 615.657C1183.91 615.657 1188.14 614.477 1191.86 612.118C1195.61 609.732 1198.56 606.248 1200.71 601.664C1202.88 597.053 1203.96 591.397 1203.96 584.695Z" fill="#0D1017"/>
<path d="M1298.23 543.52V625.87H1286.81L1244.95 565.475H1244.18V625.87H1231.76V543.52H1243.26L1285.16 603.996H1285.92V543.52H1298.23Z" fill="#0D1017"/>
<path d="M1379.8 627.076C1374.81 627.076 1370.36 625.803 1366.45 623.256C1362.56 620.683 1359.5 617.024 1357.28 612.279C1355.08 607.507 1353.98 601.784 1353.98 595.109C1353.98 588.435 1355.09 582.725 1357.32 577.98C1359.57 573.235 1362.65 569.603 1366.57 567.083C1370.48 564.563 1374.92 563.304 1379.88 563.304C1383.71 563.304 1386.79 563.947 1389.12 565.234C1391.48 566.493 1393.31 567.968 1394.59 569.657C1395.91 571.345 1396.93 572.833 1397.65 574.12H1398.37V543.52H1410.4V625.87H1398.65V616.26H1397.65C1396.93 617.573 1395.88 619.074 1394.51 620.763C1393.17 622.452 1391.32 623.926 1388.96 625.186C1386.6 626.446 1383.55 627.076 1379.8 627.076ZM1382.45 616.823C1385.91 616.823 1388.83 615.911 1391.22 614.088C1393.63 612.239 1395.45 609.679 1396.68 606.408C1397.94 603.138 1398.57 599.331 1398.57 594.989C1398.57 590.7 1397.96 586.947 1396.72 583.73C1395.49 580.513 1393.68 578.007 1391.3 576.211C1388.91 574.415 1385.96 573.517 1382.45 573.517C1378.83 573.517 1375.81 574.455 1373.4 576.331C1370.99 578.208 1369.17 580.768 1367.93 584.012C1366.73 587.255 1366.12 590.914 1366.12 594.989C1366.12 599.117 1366.74 602.83 1367.97 606.127C1369.21 609.424 1371.03 612.038 1373.44 613.968C1375.88 615.871 1378.88 616.823 1382.45 616.823Z" fill="#0D1017"/>
<path d="M1465.5 627.116C1459.41 627.116 1454.17 625.816 1449.77 623.216C1445.41 620.589 1442.03 616.903 1439.64 612.158C1437.28 607.387 1436.1 601.798 1436.1 595.391C1436.1 589.065 1437.28 583.489 1439.64 578.664C1442.03 573.838 1445.35 570.072 1449.61 567.365C1453.9 564.657 1458.92 563.304 1464.65 563.304C1468.14 563.304 1471.51 563.88 1474.79 565.033C1478.06 566.185 1480.99 567.995 1483.59 570.461C1486.19 572.927 1488.24 576.13 1489.74 580.071C1491.24 583.985 1491.99 588.743 1491.99 594.345V598.608H1442.9V589.601H1480.21C1480.21 586.438 1479.57 583.636 1478.28 581.197C1477 578.731 1475.19 576.787 1472.85 575.366C1470.55 573.946 1467.84 573.235 1464.73 573.235C1461.36 573.235 1458.41 574.066 1455.89 575.728C1453.39 577.364 1451.46 579.508 1450.1 582.162C1448.76 584.789 1448.09 587.644 1448.09 590.727V597.763C1448.09 601.891 1448.81 605.403 1450.26 608.298C1451.73 611.193 1453.78 613.405 1456.41 614.933C1459.04 616.434 1462.11 617.185 1465.62 617.185C1467.9 617.185 1469.97 616.863 1471.85 616.22C1473.73 615.549 1475.35 614.558 1476.72 613.244C1478.08 611.931 1479.13 610.309 1479.85 608.379L1491.23 610.429C1490.32 613.78 1488.68 616.715 1486.33 619.235C1483.99 621.728 1481.06 623.672 1477.52 625.066C1474.01 626.433 1470 627.116 1465.5 627.116Z" fill="#0D1017"/>
<path d="M1567.72 564.108L1545.33 625.87H1532.46L1510.02 564.108H1522.93L1538.57 611.636H1539.22L1554.82 564.108H1567.72Z" fill="#0D1017"/>
<path d="M1614.86 627.116C1608.78 627.116 1603.54 625.816 1599.14 623.216C1594.77 620.589 1591.39 616.903 1589.01 612.158C1586.65 607.387 1585.47 601.798 1585.47 595.391C1585.47 589.065 1586.65 583.489 1589.01 578.664C1591.39 573.838 1594.72 570.072 1598.98 567.365C1603.27 564.657 1608.28 563.304 1614.02 563.304C1617.5 563.304 1620.88 563.88 1624.15 565.033C1627.42 566.185 1630.36 567.995 1632.96 570.461C1635.56 572.927 1637.61 576.13 1639.11 580.071C1640.61 583.985 1641.36 588.743 1641.36 594.345V598.608H1592.27V589.601H1629.58C1629.58 586.438 1628.94 583.636 1627.65 581.197C1626.36 578.731 1624.55 576.787 1622.22 575.366C1619.92 573.946 1617.21 573.235 1614.1 573.235C1610.72 573.235 1607.77 574.066 1605.25 575.728C1602.76 577.364 1600.83 579.508 1599.46 582.162C1598.12 584.789 1597.45 587.644 1597.45 590.727V597.763C1597.45 601.891 1598.18 605.403 1599.62 608.298C1601.1 611.193 1603.15 613.405 1605.78 614.933C1608.4 616.434 1611.47 617.185 1614.98 617.185C1617.26 617.185 1619.34 616.863 1621.22 616.22C1623.09 615.549 1624.72 614.558 1626.08 613.244C1627.45 611.931 1628.49 610.309 1629.22 608.379L1640.6 610.429C1639.69 613.78 1638.05 616.715 1635.69 619.235C1633.36 621.728 1630.42 623.672 1626.89 625.066C1623.37 626.433 1619.37 627.116 1614.86 627.116Z" fill="#0D1017"/>
<path d="M1678.05 543.52V625.87H1666.02V543.52H1678.05Z" fill="#0D1017"/>
<path d="M1731.56 627.116C1725.77 627.116 1720.72 625.789 1716.4 623.136C1712.09 620.482 1708.73 616.769 1706.35 611.998C1703.96 607.226 1702.77 601.65 1702.77 595.27C1702.77 588.864 1703.96 583.261 1706.35 578.463C1708.73 573.664 1712.09 569.938 1716.4 567.284C1720.72 564.63 1725.77 563.304 1731.56 563.304C1737.35 563.304 1742.4 564.63 1746.72 567.284C1751.04 569.938 1754.39 573.664 1756.77 578.463C1759.16 583.261 1760.35 588.864 1760.35 595.27C1760.35 601.65 1759.16 607.226 1756.77 611.998C1754.39 616.769 1751.04 620.482 1746.72 623.136C1742.4 625.789 1737.35 627.116 1731.56 627.116ZM1731.6 617.024C1735.35 617.024 1738.46 616.032 1740.93 614.048C1743.4 612.065 1745.22 609.424 1746.4 606.127C1747.6 602.83 1748.21 599.197 1748.21 595.23C1748.21 591.289 1747.6 587.671 1746.4 584.373C1745.22 581.049 1743.4 578.382 1740.93 576.372C1738.46 574.361 1735.35 573.356 1731.6 573.356C1727.82 573.356 1724.68 574.361 1722.19 576.372C1719.73 578.382 1717.89 581.049 1716.68 584.373C1715.5 587.671 1714.91 591.289 1714.91 595.23C1714.91 599.197 1715.5 602.83 1716.68 606.127C1717.89 609.424 1719.73 612.065 1722.19 614.048C1724.68 616.032 1727.82 617.024 1731.6 617.024Z" fill="#0D1017"/>
<path d="M1785.09 649.031V564.108H1796.84V574.12H1797.84C1798.54 572.833 1799.54 571.345 1800.86 569.657C1802.17 567.968 1803.99 566.493 1806.32 565.234C1808.66 563.947 1811.74 563.304 1815.57 563.304C1820.56 563.304 1825.01 564.563 1828.92 567.083C1832.84 569.603 1835.91 573.235 1838.13 577.98C1840.38 582.725 1841.51 588.435 1841.51 595.109C1841.51 601.784 1840.4 607.507 1838.17 612.279C1835.95 617.024 1832.89 620.683 1829 623.256C1825.12 625.803 1820.68 627.076 1815.69 627.076C1811.94 627.076 1808.87 626.446 1806.49 625.186C1804.13 623.926 1802.28 622.452 1800.94 620.763C1799.6 619.074 1798.56 617.573 1797.84 616.26H1797.12V649.031H1785.09ZM1796.88 594.989C1796.88 599.331 1797.51 603.138 1798.77 606.408C1800.03 609.679 1801.85 612.239 1804.23 614.088C1806.62 615.911 1809.54 616.823 1813 616.823C1816.59 616.823 1819.59 615.871 1822.01 613.968C1824.42 612.038 1826.24 609.424 1827.47 606.127C1828.73 602.83 1829.36 599.117 1829.36 594.989C1829.36 590.914 1828.75 587.255 1827.52 584.012C1826.31 580.768 1824.49 578.208 1822.05 576.331C1819.63 574.455 1816.62 573.517 1813 573.517C1809.51 573.517 1806.57 574.415 1804.15 576.211C1801.77 578.007 1799.96 580.513 1798.72 583.73C1797.49 586.947 1796.88 590.7 1796.88 594.989Z" fill="#0D1017"/>
<path d="M1866.3 625.87V564.108H1877.84V574.16H1878.61C1879.89 570.756 1882 568.102 1884.92 566.199C1887.84 564.269 1891.34 563.304 1895.41 563.304C1899.54 563.304 1903 564.269 1905.79 566.199C1908.6 568.129 1910.68 570.783 1912.02 574.16H1912.66C1914.14 570.863 1916.48 568.236 1919.7 566.279C1922.92 564.295 1926.75 563.304 1931.2 563.304C1936.8 563.304 1941.37 565.059 1944.91 568.571C1948.48 572.083 1950.26 577.377 1950.26 584.454V625.87H1938.24V585.58C1938.24 581.398 1937.1 578.369 1934.82 576.492C1932.54 574.616 1929.82 573.678 1926.66 573.678C1922.74 573.678 1919.7 574.884 1917.53 577.296C1915.36 579.682 1914.27 582.752 1914.27 586.505V625.87H1902.29V584.816C1902.29 581.465 1901.24 578.771 1899.15 576.734C1897.06 574.696 1894.34 573.678 1890.99 573.678C1888.71 573.678 1886.61 574.281 1884.68 575.487C1882.77 576.667 1881.23 578.315 1880.05 580.433C1878.9 582.551 1878.32 585.003 1878.32 587.791V625.87H1866.3Z" fill="#0D1017"/>
<path d="M2004.32 627.116C1998.23 627.116 1992.99 625.816 1988.59 623.216C1984.22 620.589 1980.85 616.903 1978.46 612.158C1976.1 607.387 1974.92 601.798 1974.92 595.391C1974.92 589.065 1976.1 583.489 1978.46 578.664C1980.85 573.838 1984.17 570.072 1988.43 567.365C1992.72 564.657 1997.73 563.304 2003.47 563.304C2006.96 563.304 2010.33 563.88 2013.6 565.033C2016.87 566.185 2019.81 567.995 2022.41 570.461C2025.01 572.927 2027.06 576.13 2028.56 580.071C2030.06 583.985 2030.81 588.743 2030.81 594.345V598.608H1981.72V589.601H2019.03C2019.03 586.438 2018.39 583.636 2017.1 581.197C2015.82 578.731 2014.01 576.787 2011.67 575.366C2009.37 573.946 2006.66 573.235 2003.55 573.235C2000.17 573.235 1997.23 574.066 1994.71 575.728C1992.21 577.364 1990.28 579.508 1988.92 582.162C1987.57 584.789 1986.9 587.644 1986.9 590.727V597.763C1986.9 601.891 1987.63 605.403 1989.08 608.298C1990.55 611.193 1992.6 613.405 1995.23 614.933C1997.86 616.434 2000.92 617.185 2004.44 617.185C2006.71 617.185 2008.79 616.863 2010.67 616.22C2012.55 615.549 2014.17 614.558 2015.53 613.244C2016.9 611.931 2017.95 610.309 2018.67 608.379L2030.05 610.429C2029.14 613.78 2027.5 616.715 2025.14 619.235C2022.81 621.728 2019.88 623.672 2016.34 625.066C2012.83 626.433 2008.82 627.116 2004.32 627.116Z" fill="#0D1017"/>
<path d="M2067.5 589.199V625.87H2055.48V564.108H2067.02V574.16H2067.78C2069.2 570.89 2071.43 568.263 2074.46 566.279C2077.51 564.295 2081.36 563.304 2086 563.304C2090.2 563.304 2093.89 564.188 2097.05 565.957C2100.22 567.7 2102.67 570.3 2104.41 573.758C2106.15 577.216 2107.03 581.492 2107.03 586.585V625.87H2095V588.033C2095 583.556 2093.84 580.058 2091.5 577.538C2089.17 574.991 2085.97 573.718 2081.89 573.718C2079.11 573.718 2076.63 574.321 2074.46 575.527C2072.31 576.734 2070.61 578.503 2069.35 580.835C2068.12 583.14 2067.5 585.928 2067.5 589.199Z" fill="#0D1017"/>
<path d="M2163.3 564.108V573.758H2129.57V564.108H2163.3ZM2138.61 549.311H2150.64V607.735C2150.64 610.067 2150.99 611.823 2151.68 613.003C2152.38 614.155 2153.28 614.946 2154.38 615.375C2155.5 615.777 2156.72 615.978 2158.04 615.978C2159 615.978 2159.84 615.911 2160.57 615.777C2161.29 615.643 2161.86 615.536 2162.26 615.456L2164.43 625.387C2163.73 625.655 2162.74 625.924 2161.45 626.192C2160.17 626.486 2158.56 626.647 2156.63 626.674C2153.46 626.728 2150.52 626.165 2147.78 624.985C2145.05 623.806 2142.84 621.983 2141.15 619.517C2139.46 617.051 2138.61 613.954 2138.61 610.228V549.311Z" fill="#0D1017"/>
</svg>
