<svg width="2062" height="824" viewBox="0 0 2062 824" fill="none" xmlns="http://www.w3.org/2000/svg">
<path d="M1476.07 472.116H1536.02V262.917H1618.93V205.937H1393.16V262.917H1476.07V472.116Z" fill="#0D1017"/>
<path d="M286.902 472.117H346.86V262.918H429.762V205.938H204V262.918H286.902V472.117Z" fill="#0098EA"/>
<path d="M573.865 477.11C649.558 477.11 711.398 415.253 711.398 339.521C711.398 263.79 649.558 201.933 573.865 201.933C498.172 201.933 436.332 263.79 436.332 339.521C436.332 415.253 497.787 477.11 573.865 477.11ZM573.865 419.36C530.396 419.36 496.291 382.614 496.291 339.508C496.291 296.401 530.396 259.655 573.865 259.655C617.334 259.655 651.055 296.401 651.055 339.508C651.055 382.614 616.95 419.36 573.865 419.36Z" fill="#0098EA"/>
<path d="M985.004 472.131V205.938H925.046V370.148L795.764 205.938H744.428V472.131H804.002V307.549L933.668 472.131H985.004Z" fill="#0098EA"/>
<path d="M1038.31 471.978V205.834H1095.35V323.182L1195.98 205.834H1264.34L1164.23 325.001L1265.52 471.978H1197.29L1123.4 362.557L1095.35 396.345V471.978H1038.31Z" fill="#0D1017"/>
<path d="M1355 205.834V471.796H1295.47V205.834H1355Z" fill="#0D1017"/>
<path d="M1653.9 471.978V205.834L1838.31 205.834V252.227H1713.54V315.644H1828.96V362.037H1713.54V425.584H1838.84V471.978H1653.9Z" fill="#0D1017"/>
<path d="M438 560.43V553.509H479.237V560.43H462.612V606.792H454.599V560.43H438Z" fill="#0D1017"/>
<path d="M506.089 607.599C502.343 607.599 499.074 606.74 496.281 605.023C493.489 603.306 491.32 600.904 489.777 597.817C488.233 594.729 487.461 591.121 487.461 586.993C487.461 582.848 488.233 579.223 489.777 576.118C491.32 573.014 493.489 570.603 496.281 568.886C499.074 567.168 502.343 566.31 506.089 566.31C509.836 566.31 513.105 567.168 515.898 568.886C518.69 570.603 520.859 573.014 522.402 576.118C523.946 579.223 524.718 582.848 524.718 586.993C524.718 591.121 523.946 594.729 522.402 597.817C520.859 600.904 518.69 603.306 515.898 605.023C513.105 606.74 509.836 607.599 506.089 607.599ZM506.115 601.069C508.544 601.069 510.556 600.427 512.151 599.143C513.747 597.86 514.927 596.151 515.69 594.018C516.47 591.885 516.861 589.534 516.861 586.967C516.861 584.418 516.47 582.076 515.69 579.943C514.927 577.792 513.747 576.066 512.151 574.765C510.556 573.465 508.544 572.814 506.115 572.814C503.67 572.814 501.641 573.465 500.027 574.765C498.432 576.066 497.244 577.792 496.463 579.943C495.7 582.076 495.318 584.418 495.318 586.967C495.318 589.534 495.7 591.885 496.463 594.018C497.244 596.151 498.432 597.86 500.027 599.143C501.641 600.427 503.67 601.069 506.115 601.069Z" fill="#0D1017"/>
<path d="M557.56 607.599C553.814 607.599 550.545 606.74 547.752 605.023C544.96 603.306 542.791 600.904 541.248 597.817C539.704 594.729 538.932 591.121 538.932 586.993C538.932 582.848 539.704 579.223 541.248 576.118C542.791 573.014 544.96 570.603 547.752 568.886C550.545 567.168 553.814 566.31 557.56 566.31C561.307 566.31 564.576 567.168 567.369 568.886C570.161 570.603 572.33 573.014 573.873 576.118C575.417 579.223 576.189 582.848 576.189 586.993C576.189 591.121 575.417 594.729 573.873 597.817C572.33 600.904 570.161 603.306 567.369 605.023C564.576 606.74 561.307 607.599 557.56 607.599ZM557.587 601.069C560.015 601.069 562.027 600.427 563.622 599.143C565.218 597.86 566.398 596.151 567.161 594.018C567.941 591.885 568.332 589.534 568.332 586.967C568.332 584.418 567.941 582.076 567.161 579.943C566.398 577.792 565.218 576.066 563.622 574.765C562.027 573.465 560.015 572.814 557.587 572.814C555.141 572.814 553.112 573.465 551.498 574.765C549.903 576.066 548.715 577.792 547.934 579.943C547.171 582.076 546.789 584.418 546.789 586.967C546.789 589.534 547.171 591.885 547.934 594.018C548.715 596.151 549.903 597.86 551.498 599.143C553.112 600.427 555.141 601.069 557.587 601.069Z" fill="#0D1017"/>
<path d="M599.978 553.509V606.792H592.198V553.509H599.978Z" fill="#0D1017"/>
<path d="M624.924 593.238L624.872 583.741H626.225L642.147 566.83H651.462L633.302 586.083H632.079L624.924 593.238ZM617.769 606.792V553.509H625.548V606.792H617.769ZM643.006 606.792L628.697 587.8L634.056 582.362L652.554 606.792H643.006Z" fill="#0D1017"/>
<path d="M665.878 606.792V566.83H673.657V606.792H665.878ZM669.806 560.664C668.453 560.664 667.291 560.213 666.32 559.311C665.366 558.392 664.889 557.299 664.889 556.033C664.889 554.75 665.366 553.657 666.32 552.755C667.291 551.836 668.453 551.376 669.806 551.376C671.159 551.376 672.313 551.836 673.267 552.755C674.238 553.657 674.723 554.75 674.723 556.033C674.723 557.299 674.238 558.392 673.267 559.311C672.313 560.213 671.159 560.664 669.806 560.664Z" fill="#0D1017"/>
<path d="M710.103 566.83V573.074H688.275V566.83H710.103ZM694.128 557.256H701.907V595.059C701.907 596.568 702.133 597.704 702.584 598.467C703.035 599.213 703.616 599.724 704.327 600.002C705.056 600.262 705.845 600.392 706.695 600.392C707.319 600.392 707.865 600.349 708.334 600.262C708.802 600.175 709.166 600.106 709.426 600.054L710.831 606.48C710.38 606.654 709.739 606.827 708.906 607.001C708.074 607.191 707.033 607.295 705.784 607.313C703.737 607.348 701.829 606.983 700.06 606.22C698.291 605.457 696.86 604.277 695.767 602.682C694.675 601.086 694.128 599.083 694.128 596.672V557.256Z" fill="#0D1017"/>
<path d="M771.769 566.83V573.074H749.186V566.83H771.769ZM755.378 606.792V562.199C755.378 559.701 755.924 557.629 757.017 555.981C758.11 554.316 759.558 553.076 761.362 552.261C763.166 551.428 765.126 551.012 767.242 551.012C768.803 551.012 770.138 551.142 771.248 551.402C772.359 551.645 773.182 551.87 773.72 552.078L771.899 558.375C771.535 558.271 771.066 558.149 770.494 558.01C769.922 557.854 769.228 557.776 768.413 557.776C766.522 557.776 765.169 558.244 764.354 559.181C763.556 560.118 763.157 561.471 763.157 563.24V606.792H755.378Z" fill="#0D1017"/>
<path d="M802.381 607.599C798.634 607.599 795.365 606.74 792.572 605.023C789.78 603.306 787.611 600.904 786.068 597.817C784.524 594.729 783.752 591.121 783.752 586.993C783.752 582.848 784.524 579.223 786.068 576.118C787.611 573.014 789.78 570.603 792.572 568.886C795.365 567.168 798.634 566.31 802.381 566.31C806.127 566.31 809.396 567.168 812.189 568.886C814.982 570.603 817.15 573.014 818.693 576.118C820.237 579.223 821.009 582.848 821.009 586.993C821.009 591.121 820.237 594.729 818.693 597.817C817.15 600.904 814.982 603.306 812.189 605.023C809.396 606.74 806.127 607.599 802.381 607.599ZM802.407 601.069C804.835 601.069 806.847 600.427 808.442 599.143C810.038 597.86 811.218 596.151 811.981 594.018C812.761 591.885 813.152 589.534 813.152 586.967C813.152 584.418 812.761 582.076 811.981 579.943C811.218 577.792 810.038 576.066 808.442 574.765C806.847 573.465 804.835 572.814 802.407 572.814C799.961 572.814 797.932 573.465 796.319 574.765C794.723 576.066 793.535 577.792 792.754 579.943C791.991 582.076 791.609 584.418 791.609 586.967C791.609 589.534 791.991 591.885 792.754 594.018C793.535 596.151 794.723 597.86 796.319 599.143C797.932 600.427 799.961 601.069 802.407 601.069Z" fill="#0D1017"/>
<path d="M837.018 606.792V566.83H844.537V573.178H844.954C845.682 571.028 846.966 569.336 848.804 568.105C850.66 566.856 852.759 566.232 855.1 566.232C855.586 566.232 856.158 566.249 856.818 566.284C857.494 566.318 858.023 566.362 858.405 566.414V573.855C858.092 573.768 857.537 573.673 856.739 573.569C855.942 573.447 855.144 573.386 854.346 573.386C852.507 573.386 850.868 573.777 849.429 574.557C848.006 575.32 846.879 576.387 846.046 577.757C845.214 579.11 844.798 580.654 844.798 582.388V606.792H837.018Z" fill="#0D1017"/>
<path d="M897.175 560.43V553.509H938.413V560.43H921.788V606.792H913.774V560.43H897.175Z" fill="#0D1017"/>
<path d="M991.52 580.151C991.52 585.84 990.479 590.731 988.398 594.825C986.317 598.901 983.463 602.04 979.838 604.243C976.231 606.428 972.129 607.521 967.532 607.521C962.918 607.521 958.799 606.428 955.174 604.243C951.566 602.04 948.722 598.892 946.64 594.799C944.559 590.705 943.518 585.823 943.518 580.151C943.518 574.462 944.559 569.579 946.64 565.503C948.722 561.41 951.566 558.271 955.174 556.085C958.799 553.882 962.918 552.781 967.532 552.781C972.129 552.781 976.231 553.882 979.838 556.085C983.463 558.271 986.317 561.41 988.398 565.503C990.479 569.579 991.52 574.462 991.52 580.151ZM983.559 580.151C983.559 575.815 982.856 572.164 981.451 569.198C980.064 566.214 978.156 563.96 975.728 562.433C973.317 560.89 970.585 560.118 967.532 560.118C964.462 560.118 961.722 560.89 959.311 562.433C956.9 563.96 954.992 566.214 953.587 569.198C952.199 572.164 951.506 575.815 951.506 580.151C951.506 584.487 952.199 588.147 953.587 591.13C954.992 594.096 956.9 596.351 959.311 597.895C961.722 599.421 964.462 600.184 967.532 600.184C970.585 600.184 973.317 599.421 975.728 597.895C978.156 596.351 980.064 594.096 981.451 591.13C982.856 588.147 983.559 584.487 983.559 580.151Z" fill="#0D1017"/>
<path d="M1044.55 553.509V606.792H1037.16L1010.08 567.715H1009.58V606.792H1001.54V553.509H1008.98L1036.09 592.639H1036.59V553.509H1044.55Z" fill="#0D1017"/>
<path d="M1097.33 607.573C1094.1 607.573 1091.22 606.749 1088.69 605.101C1086.18 603.436 1084.2 601.069 1082.76 597.999C1081.34 594.911 1080.62 591.208 1080.62 586.889C1080.62 582.571 1081.34 578.876 1082.78 575.806C1084.24 572.736 1086.24 570.386 1088.77 568.755C1091.3 567.125 1094.17 566.31 1097.38 566.31C1099.86 566.31 1101.85 566.726 1103.36 567.559C1104.89 568.374 1106.07 569.328 1106.9 570.421C1107.75 571.513 1108.41 572.476 1108.88 573.308H1109.35V553.509H1117.13V606.792H1109.53V600.574H1108.88C1108.41 601.424 1107.73 602.396 1106.85 603.488C1105.98 604.581 1104.79 605.535 1103.26 606.35C1101.73 607.165 1099.76 607.573 1097.33 607.573ZM1099.04 600.939C1101.28 600.939 1103.17 600.349 1104.72 599.169C1106.28 597.973 1107.46 596.316 1108.26 594.2C1109.07 592.084 1109.48 589.621 1109.48 586.811C1109.48 584.036 1109.08 581.608 1108.28 579.527C1107.48 577.445 1106.31 575.823 1104.77 574.661C1103.23 573.499 1101.32 572.918 1099.04 572.918C1096.7 572.918 1094.75 573.525 1093.19 574.739C1091.63 575.953 1090.45 577.61 1089.65 579.709C1088.87 581.807 1088.48 584.175 1088.48 586.811C1088.48 589.482 1088.88 591.885 1089.68 594.018C1090.48 596.151 1091.66 597.843 1093.22 599.091C1094.8 600.323 1096.74 600.939 1099.04 600.939Z" fill="#0D1017"/>
<path d="M1152.78 607.599C1148.84 607.599 1145.45 606.758 1142.61 605.075C1139.78 603.376 1137.59 600.991 1136.05 597.921C1134.52 594.833 1133.76 591.217 1133.76 587.071C1133.76 582.978 1134.52 579.37 1136.05 576.248C1137.59 573.126 1139.74 570.689 1142.5 568.938C1145.28 567.186 1148.52 566.31 1152.23 566.31C1154.49 566.31 1156.67 566.683 1158.79 567.429C1160.91 568.174 1162.8 569.345 1164.49 570.941C1166.17 572.537 1167.5 574.609 1168.47 577.159C1169.44 579.691 1169.92 582.77 1169.92 586.395V589.153H1138.16V583.325H1162.3C1162.3 581.278 1161.89 579.466 1161.05 577.887C1160.22 576.292 1159.05 575.034 1157.54 574.115C1156.05 573.196 1154.3 572.736 1152.29 572.736C1150.1 572.736 1148.19 573.274 1146.56 574.349C1144.95 575.407 1143.7 576.795 1142.81 578.512C1141.95 580.212 1141.51 582.059 1141.51 584.054V588.607C1141.51 591.278 1141.98 593.55 1142.92 595.423C1143.87 597.296 1145.2 598.727 1146.9 599.716C1148.6 600.687 1150.59 601.173 1152.86 601.173C1154.33 601.173 1155.68 600.965 1156.89 600.548C1158.1 600.115 1159.15 599.473 1160.04 598.623C1160.92 597.773 1161.6 596.724 1162.07 595.475L1169.43 596.802C1168.84 598.97 1167.78 600.869 1166.26 602.5C1164.75 604.113 1162.85 605.37 1160.56 606.272C1158.29 607.157 1155.69 607.599 1152.78 607.599Z" fill="#0D1017"/>
<path d="M1218.92 566.83L1204.43 606.792H1196.11L1181.59 566.83H1189.94L1200.06 597.582H1200.48L1210.57 566.83H1218.92Z" fill="#0D1017"/>
<path d="M1249.43 607.599C1245.49 607.599 1242.1 606.758 1239.25 605.075C1236.43 603.376 1234.24 600.991 1232.7 597.921C1231.17 594.833 1230.41 591.217 1230.41 587.071C1230.41 582.978 1231.17 579.37 1232.7 576.248C1234.24 573.126 1236.39 570.689 1239.15 568.938C1241.92 567.186 1245.17 566.31 1248.88 566.31C1251.13 566.31 1253.32 566.683 1255.44 567.429C1257.55 568.174 1259.45 569.345 1261.13 570.941C1262.82 572.537 1264.14 574.609 1265.11 577.159C1266.09 579.691 1266.57 582.77 1266.57 586.395V589.153H1234.8V583.325H1258.95C1258.95 581.278 1258.53 579.466 1257.7 577.887C1256.87 576.292 1255.7 575.034 1254.19 574.115C1252.69 573.196 1250.94 572.736 1248.93 572.736C1246.75 572.736 1244.84 573.274 1243.21 574.349C1241.59 575.407 1240.35 576.795 1239.46 578.512C1238.59 580.212 1238.16 582.059 1238.16 584.054V588.607C1238.16 591.278 1238.63 593.55 1239.56 595.423C1240.52 597.296 1241.85 598.727 1243.55 599.716C1245.25 600.687 1247.23 601.173 1249.5 601.173C1250.98 601.173 1252.32 600.965 1253.54 600.548C1254.75 600.115 1255.8 599.473 1256.68 598.623C1257.57 597.773 1258.25 596.724 1258.71 595.475L1266.08 596.802C1265.49 598.97 1264.43 600.869 1262.9 602.5C1261.39 604.113 1259.49 605.37 1257.2 606.272C1254.93 607.157 1252.34 607.599 1249.43 607.599Z" fill="#0D1017"/>
<path d="M1290.31 553.509V606.792H1282.53V553.509H1290.31Z" fill="#0D1017"/>
<path d="M1324.93 607.599C1321.19 607.599 1317.92 606.74 1315.12 605.023C1312.33 603.306 1310.16 600.904 1308.62 597.817C1307.08 594.729 1306.3 591.121 1306.3 586.993C1306.3 582.848 1307.08 579.223 1308.62 576.118C1310.16 573.014 1312.33 570.603 1315.12 568.886C1317.92 567.168 1321.19 566.31 1324.93 566.31C1328.68 566.31 1331.95 567.168 1334.74 568.886C1337.53 570.603 1339.7 573.014 1341.25 576.118C1342.79 579.223 1343.56 582.848 1343.56 586.993C1343.56 591.121 1342.79 594.729 1341.25 597.817C1339.7 600.904 1337.53 603.306 1334.74 605.023C1331.95 606.74 1328.68 607.599 1324.93 607.599ZM1324.96 601.069C1327.39 601.069 1329.4 600.427 1330.99 599.143C1332.59 597.86 1333.77 596.151 1334.53 594.018C1335.31 591.885 1335.7 589.534 1335.7 586.967C1335.7 584.418 1335.31 582.076 1334.53 579.943C1333.77 577.792 1332.59 576.066 1330.99 574.765C1329.4 573.465 1327.39 572.814 1324.96 572.814C1322.51 572.814 1320.48 573.465 1318.87 574.765C1317.27 576.066 1316.09 577.792 1315.31 579.943C1314.54 582.076 1314.16 584.418 1314.16 586.967C1314.16 589.534 1314.54 591.885 1315.31 594.018C1316.09 596.151 1317.27 597.86 1318.87 599.143C1320.48 600.427 1322.51 601.069 1324.96 601.069Z" fill="#0D1017"/>
<path d="M1359.57 619.289V566.83H1367.17V573.308H1367.82C1368.27 572.476 1368.92 571.513 1369.77 570.421C1370.62 569.328 1371.8 568.374 1373.31 567.559C1374.82 566.726 1376.81 566.31 1379.29 566.31C1382.52 566.31 1385.4 567.125 1387.93 568.755C1390.46 570.386 1392.45 572.736 1393.89 575.806C1395.34 578.876 1396.07 582.571 1396.07 586.889C1396.07 591.208 1395.35 594.911 1393.91 597.999C1392.47 601.069 1390.5 603.436 1387.98 605.101C1385.47 606.749 1382.6 607.573 1379.37 607.573C1376.94 607.573 1374.96 607.165 1373.41 606.35C1371.89 605.535 1370.69 604.581 1369.82 603.488C1368.95 602.396 1368.29 601.424 1367.82 600.574H1367.35V619.289H1359.57ZM1367.19 586.811C1367.19 589.621 1367.6 592.084 1368.42 594.2C1369.23 596.316 1370.41 597.973 1371.95 599.169C1373.5 600.349 1375.39 600.939 1377.63 600.939C1379.95 600.939 1381.89 600.323 1383.45 599.091C1385.01 597.843 1386.19 596.151 1386.99 594.018C1387.81 591.885 1388.22 589.482 1388.22 586.811C1388.22 584.175 1387.82 581.807 1387.02 579.709C1386.24 577.61 1385.06 575.953 1383.48 574.739C1381.92 573.525 1379.97 572.918 1377.63 572.918C1375.37 572.918 1373.46 573.499 1371.9 574.661C1370.36 575.823 1369.19 577.445 1368.39 579.527C1367.59 581.608 1367.19 584.036 1367.19 586.811Z" fill="#0D1017"/>
<path d="M1412.11 606.792V566.83H1419.58V573.334H1420.08C1420.91 571.132 1422.27 569.415 1424.16 568.183C1426.05 566.934 1428.31 566.31 1430.95 566.31C1433.62 566.31 1435.86 566.934 1437.66 568.183C1439.48 569.432 1440.83 571.149 1441.7 573.334H1442.11C1443.07 571.201 1444.58 569.501 1446.67 568.235C1448.75 566.952 1451.23 566.31 1454.11 566.31C1457.73 566.31 1460.69 567.446 1462.98 569.718C1465.28 571.99 1466.44 575.416 1466.44 579.995V606.792H1458.66V580.723C1458.66 578.018 1457.92 576.058 1456.45 574.843C1454.97 573.629 1453.21 573.022 1451.17 573.022C1448.63 573.022 1446.67 573.803 1445.26 575.364C1443.86 576.907 1443.15 578.893 1443.15 581.322V606.792H1435.4V580.229C1435.4 578.061 1434.72 576.318 1433.37 575C1432.02 573.681 1430.26 573.022 1428.09 573.022C1426.61 573.022 1425.25 573.412 1424 574.193C1422.77 574.956 1421.78 576.023 1421.01 577.393C1420.27 578.763 1419.89 580.35 1419.89 582.154V606.792H1412.11Z" fill="#0D1017"/>
<path d="M1501.41 607.599C1497.48 607.599 1494.09 606.758 1491.24 605.075C1488.41 603.376 1486.23 600.991 1484.69 597.921C1483.16 594.833 1482.4 591.217 1482.4 587.071C1482.4 582.978 1483.16 579.37 1484.69 576.248C1486.23 573.126 1488.38 570.689 1491.14 568.938C1493.91 567.186 1497.16 566.31 1500.87 566.31C1503.12 566.31 1505.31 566.683 1507.42 567.429C1509.54 568.174 1511.44 569.345 1513.12 570.941C1514.8 572.537 1516.13 574.609 1517.1 577.159C1518.07 579.691 1518.56 582.77 1518.56 586.395V589.153H1486.79V583.325H1510.94C1510.94 581.278 1510.52 579.466 1509.69 577.887C1508.86 576.292 1507.68 575.034 1506.18 574.115C1504.68 573.196 1502.93 572.736 1500.92 572.736C1498.73 572.736 1496.83 573.274 1495.2 574.349C1493.58 575.407 1492.33 576.795 1491.45 578.512C1490.58 580.212 1490.15 582.059 1490.15 584.054V588.607C1490.15 591.278 1490.62 593.55 1491.55 595.423C1492.51 597.296 1493.83 598.727 1495.53 599.716C1497.23 600.687 1499.22 601.173 1501.49 601.173C1502.97 601.173 1504.31 600.965 1505.53 600.548C1506.74 600.115 1507.79 599.473 1508.67 598.623C1509.56 597.773 1510.23 596.724 1510.7 595.475L1518.07 596.802C1517.48 598.97 1516.42 600.869 1514.89 602.5C1513.38 604.113 1511.48 605.37 1509.19 606.272C1506.92 607.157 1504.33 607.599 1501.41 607.599Z" fill="#0D1017"/>
<path d="M1542.3 583.065V606.792H1534.52V566.83H1541.98V573.334H1542.48C1543.4 571.218 1544.84 569.519 1546.8 568.235C1548.77 566.952 1551.26 566.31 1554.26 566.31C1556.99 566.31 1559.37 566.882 1561.42 568.027C1563.47 569.154 1565.05 570.837 1566.18 573.074C1567.31 575.312 1567.87 578.078 1567.87 581.374V606.792H1560.09V582.31C1560.09 579.414 1559.34 577.15 1557.83 575.52C1556.32 573.872 1554.25 573.048 1551.61 573.048C1549.81 573.048 1548.2 573.439 1546.8 574.219C1545.41 575 1544.31 576.144 1543.49 577.653C1542.7 579.145 1542.3 580.949 1542.3 583.065Z" fill="#0D1017"/>
<path d="M1604.28 566.83V573.074H1582.46V566.83H1604.28ZM1588.31 557.256H1596.09V595.059C1596.09 596.568 1596.32 597.704 1596.77 598.467C1597.22 599.213 1597.8 599.724 1598.51 600.002C1599.24 600.262 1600.03 600.392 1600.88 600.392C1601.5 600.392 1602.05 600.349 1602.52 600.262C1602.98 600.175 1603.35 600.106 1603.61 600.054L1605.01 606.48C1604.56 606.654 1603.92 606.827 1603.09 607.001C1602.26 607.191 1601.21 607.295 1599.97 607.313C1597.92 607.348 1596.01 606.983 1594.24 606.22C1592.47 605.457 1591.04 604.277 1589.95 602.682C1588.86 601.086 1588.31 599.083 1588.31 596.672V557.256Z" fill="#0D1017"/>
</svg>
