<svg xmlns="http://www.w3.org/2000/svg" width="512" height="176" viewBox="0 0 135.467 46.567">
  <g style="fill:#08c"
     transform="translate(-110.589 -289.589) scale(.6462)">
    <path
      d="M232.175 472.002v2.36h-8.88v25.36h-2.72v-25.36h-8.88v-2.36zm20.04 17.4q0 2.44-.72 4.44-.68 2-1.96 3.4-1.24 1.4-2.96 2.2-1.72.76-3.8.76t-3.8-.76q-1.72-.8-3-2.2-1.24-1.4-1.96-3.4-.68-2-.68-4.44 0-2.44.68-4.44.72-2 1.96-3.4 1.28-1.44 3-2.2 1.72-.8 3.8-.8t3.8.8q1.72.76 2.96 2.2 1.28 1.4 1.96 3.4.72 2 .72 4.44zm-2.76 0q0-3.88-1.8-6.16-1.8-2.32-4.88-2.32t-4.88 2.32q-1.8 2.28-1.8 6.16 0 3.88 1.8 6.16 1.8 2.28 4.88 2.28t4.88-2.28q1.8-2.28 1.8-6.16zm8.399-9.64q1.16-.32 3.12-.72 1.96-.4 4.8-.4 2.36 0 3.92.68 1.6.68 2.52 1.96.96 1.24 1.36 3 .4 1.76.4 3.88v11.56h-2.6v-10.72q0-2.2-.32-3.72-.28-1.52-1-2.48-.68-.96-1.84-1.36-1.12-.44-2.84-.44-1.84 0-3.2.2-1.32.2-1.72.36v18.16h-2.6zm28.28 8.72q1.24.84 2.64 2.16 1.44 1.32 2.8 2.88 1.4 1.52 2.6 3.16 1.24 1.6 2.08 3.04h-3.08q-.96-1.6-2.2-3.12-1.2-1.56-2.56-2.92-1.32-1.36-2.68-2.48-1.32-1.12-2.52-1.88v10.4h-2.6v-30.56l2.6-.48v19.68q1-.96 2.24-2.2 1.24-1.24 2.48-2.52 1.28-1.28 2.4-2.48 1.12-1.2 1.92-2.12h3.12q-.92.96-2.08 2.16-1.16 1.2-2.44 2.52-1.24 1.28-2.48 2.52l-2.24 2.24zm16.88 11.24h-2.6v-20.68h2.6zm.6-26.92q0 .92-.56 1.48-.56.52-1.36.52t-1.36-.52q-.56-.56-.56-1.48 0-.92.56-1.44.56-.56 1.36-.56t1.36.56q.56.52.56 1.44zm8.72 6.24h8.24v2.2h-8.24v11q0 1.76.28 2.88.32 1.08.88 1.68.56.6 1.36.8.8.2 1.76.2 1.64 0 2.64-.36 1-.4 1.56-.72l.64 2.16q-.56.36-1.96.84-1.4.44-3.04.44-1.92 0-3.24-.48-1.28-.52-2.08-1.52-.76-1.04-1.08-2.56-.32-1.52-.32-3.6v-19.04l2.6-.48zm11.8 10.32q0-2.72.76-4.72.8-2.04 2.04-3.4 1.28-1.36 2.88-2 1.64-.68 3.36-.68 3.8 0 6.04 2.48 2.28 2.48 2.28 7.64 0 .32-.04.64 0 .32-.04.6h-14.52q.12 3.8 1.88 5.84 1.76 2.04 5.6 2.04 2.12 0 3.36-.4 1.24-.4 1.8-.68l.48 2.24q-.56.32-2.12.76-1.52.44-3.6.44-2.72 0-4.64-.8-1.92-.8-3.16-2.24-1.24-1.44-1.8-3.4-.56-2-.56-4.36zm14.68-1.64q-.08-3.24-1.52-5.04-1.44-1.8-4.08-1.8-1.4 0-2.52.56-1.08.56-1.92 1.52-.8.92-1.28 2.16-.44 1.24-.52 2.6z"/>
  </g>
</svg>
